<?xml version="1.0" encoding="utf-8"?>
<!-- Generator: Adobe Illustrator 21.1.0, SVG Export Plug-In . SVG Version: 6.00 Build 0)  -->
<svg version="1.1" id="图层_1" xmlns="http://www.w3.org/2000/svg" xmlns:xlink="http://www.w3.org/1999/xlink" x="0px" y="0px"
	 viewBox="0 0 35 35" style="enable-background:new 0 0 35 35;" xml:space="preserve">
<style type="text/css">
	.st0{fill:url(#SVGID_1_);}
	.st1{fill:#FFFFFF;}
</style>
<g>
	<linearGradient id="SVGID_1_" gradientUnits="userSpaceOnUse" x1="17.5" y1="27.5" x2="17.5" y2="7.5">
		<stop  offset="0.1584" style="stop-color:#FF6C00"/>
		<stop  offset="0.6139" style="stop-color:#FF5A00"/>
	</linearGradient>
	<path class="st0" d="M2,7.5h31c1.1,0,2,1,2,2.2v15.6c0,1.2-0.9,2.2-2,2.2H2c-1.1,0-2-1-2-2.2V9.7C0,8.5,0.9,7.5,2,7.5z"/>
</g>
<g>
	<path class="st1" d="M8.4,21.4c1.2,0,1.4-0.3,1.6-2.1c0.3,0.2,0.8,0.4,1.1,0.4c-0.2,2.1-0.7,2.8-2.6,2.8H4.3c-2,0-2.6-0.4-2.6-1.9
		v-5.6h1.1v1.7h5.6v-2.8H1.2v-1h8.4v5.4H8.5v-0.6H2.8v2.8c0,0.7,0.2,0.9,1.5,0.9H8.4z"/>
	<path class="st1" d="M14.7,20.3c0.2,0.1,0.4,0.3,0.8,0.5c0.7,0.4,1.8,0.5,3,0.5s3.1-0.1,4.2-0.2c-0.1,0.3-0.3,0.9-0.3,1.2
		c-0.8,0-2.8,0.1-3.9,0.1c-1.4,0-2.4-0.1-3.2-0.6c-0.5-0.3-0.9-0.7-1.1-0.7c-0.4,0-0.9,0.7-1.4,1.5l-0.8-1c0.6-0.6,1.2-1.1,1.7-1.3
		v-2.8h-1.5v-1h2.5V20.3z M14.1,15c-0.3-0.6-1-1.4-1.7-2l0.8-0.6c0.6,0.6,1.4,1.4,1.7,1.9L14.1,15z M19.8,15.2h-4.3v-1h4.3v-2h1.1v2
		h1.5v1h-1.5v4.2c0,0.7-0.2,1-0.6,1.1c-0.4,0.2-1.2,0.2-2.2,0.2c0-0.3-0.2-0.8-0.4-1.1c0.8,0,1.6,0,1.8,0c0.2,0,0.3-0.1,0.3-0.3
		V15.2z M16.8,15.9c0.6,0.7,1.3,1.6,1.6,2.2l-0.9,0.6c-0.3-0.6-1-1.6-1.6-2.3L16.8,15.9z"/>
	<path class="st1" d="M26.1,20.4c-0.4,0.9-1.1,1.7-1.7,2.3c-0.2-0.2-0.6-0.5-0.9-0.6c0.6-0.5,1.2-1.2,1.5-2L26.1,20.4z M29.2,20
		h-5.6V19h1.1v-4.5h-0.9v-0.9h0.9v-1.3h1v1.3h1.8v-1.3h1v1.3h0.8v0.9h-0.8V19h0.8V20z M25.6,14.5v0.9h1.8v-0.9H25.6z M25.6,17.2h1.8
		v-1h-1.8V17.2z M25.6,19h1.8v-1h-1.8V19z M27.6,20.1c0.4,0.5,1,1.2,1.2,1.7L28,22.3c-0.2-0.5-0.8-1.2-1.2-1.8L27.6,20.1z
		 M33.8,21.5c0,0.6-0.1,0.9-0.5,1c-0.3,0.2-0.9,0.2-1.8,0.2c0-0.3-0.2-0.7-0.3-1c0.5,0,1.1,0,1.3,0c0.2,0,0.2-0.1,0.2-0.2v-2.6h-2.1
		c-0.1,1.4-0.4,2.8-1.1,3.9c-0.2-0.2-0.6-0.5-0.9-0.6c0.9-1.5,1-3.7,1-5.3v-4.1h4.1V21.5z M32.8,17.9v-1.7h-2v0.6c0,0.3,0,0.7,0,1.1
		H32.8z M30.7,13.7v1.6h2v-1.6H30.7z"/>
</g>
</svg>
