<?xml version="1.0" encoding="utf-8"?>
<!-- Generator: Adobe Illustrator 21.1.0, SVG Export Plug-In . SVG Version: 6.00 Build 0)  -->
<svg version="1.1" id="图层_1" xmlns="http://www.w3.org/2000/svg" xmlns:xlink="http://www.w3.org/1999/xlink" x="0px" y="0px"
	 viewBox="0 0 35 35" style="enable-background:new 0 0 35 35;" xml:space="preserve">
<style type="text/css">
	.st0{fill:url(#SVGID_1_);}
	.st1{fill:#FFFFFF;}
</style>
<g>
	
		<linearGradient id="SVGID_1_" gradientUnits="userSpaceOnUse" x1="17.5092" y1="7.4442" x2="17.5092" y2="27.5139" gradientTransform="matrix(1 0 0 -1 0 35)">
		<stop  offset="0" style="stop-color:#E3382F"/>
		<stop  offset="1" style="stop-color:#E00000"/>
	</linearGradient>
	<path class="st0" d="M2,7.5h31c1.1,0,2,1,2,2.2v15.6c0,1.2-0.9,2.2-2,2.2H2c-1.1,0-2-1-2-2.2V9.7C0,8.5,0.9,7.5,2,7.5z"/>
</g>
<g>
	<path class="st1" d="M7.4,17.9c1,1.4,2.6,2.7,4.1,3.3c-0.2,0.2-0.6,0.6-0.7,0.9c-1.4-0.7-2.8-1.9-3.9-3.4v3.9H5.8v-3.9
		c-1,1.4-2.5,2.6-3.9,3.3c-0.2-0.2-0.6-0.6-0.7-0.9c1.5-0.6,3.1-1.9,4.1-3.3H1.5v-1h4.4V15H2.3v-1h3.6v-1.8h1.1V14h3.6v1H6.9v1.7
		h4.4v1L7.4,17.9L7.4,17.9z"/>
	<path class="st1" d="M14.5,17.5c-0.5-0.3-1.4-0.9-2-1.2l0.6-0.7c0.6,0.3,1.6,0.8,2.1,1.1L14.5,17.5z M15.7,19
		c-0.6,1.1-1.3,2.5-2,3.6l-0.9-0.7c0.6-0.8,1.5-2.3,2.1-3.6L15.7,19z M15.1,14.5c-0.5-0.3-1.4-0.9-2.1-1.2l0.6-0.7
		c0.6,0.3,1.6,0.8,2.1,1.1L15.1,14.5z M22.7,21.3v1h-7.3v-1h3.1v-2.6h-2.3v-1h2.3v-2.3h-2.8v-1h3.1c-0.2-0.5-0.5-1.2-0.9-1.8l1-0.3
		c0.3,0.6,0.7,1.3,0.9,1.8l-1,0.4h3.5v1h-2.7v2.3h2.3v1h-2.3v2.6L22.7,21.3L22.7,21.3z"/>
	<path class="st1" d="M33.8,17.7h-1.1v3.7c0,0.6-0.1,0.8-0.5,1c-0.3,0.2-0.9,0.2-1.6,0.2c-0.1-0.2-0.2-0.7-0.3-1c0.5,0,1,0,1.2,0
		c0.2,0,0.2-0.1,0.2-0.2v-3.7h-1.5c-0.1,1.6-0.4,3.6-1.3,4.9c-0.2-0.2-0.6-0.6-0.8-0.7c-0.1,0.2-0.2,0.3-0.4,0.4
		c-0.3,0.2-0.8,0.2-1.6,0.2c0-0.2-0.2-0.7-0.3-0.9c0.5,0,1,0,1.1,0c0.2,0,0.2-0.1,0.2-0.2v-3.7h-1.4c-0.1,1.7-0.4,3.6-1.5,5
		c-0.2-0.2-0.6-0.6-0.7-0.7c0.9-1.2,1.1-2.8,1.2-4.3h-1.2v-0.8h1.2v-0.2v-3.5h3.3v3.6h1v-0.2V13h3.6v3.7h1.1V17.7z M27.1,16.7v-2.7
		h-1.3v2.5v0.2H27.1z M28.1,21.4c0,0.2,0,0.4-0.1,0.5c0.8-1.2,1-2.7,1-4.2h-1V21.4z M31.6,16.7v-2.7h-1.5v2.6v0.1H31.6z"/>
</g>
</svg>
